<?xml version="1.0" encoding="utf-8"?>
<!-- Generator: Adobe Illustrator 19.1.0, SVG Export Plug-In . SVG Version: 6.00 Build 0)  -->
<svg version="1.1" id="Layer_1" xmlns="http://www.w3.org/2000/svg" xmlns:xlink="http://www.w3.org/1999/xlink" x="0px" y="0px"
	 viewBox="0 0 64 64" enable-background="new 0 0 64 64" xml:space="preserve">
<g id="Books_1_">
	<path d="M62.9994125,39.4741516h-1.9568176c-2.3530006-5.0440025-2.3532982-9.9673023,0-15.0459023h1.9568176
		c0.5526848,0,1-0.4477997,1-1c0-0.5522995-0.4473152-1-1-1H25.8977966v-0.7432003h31.9053001c0.5527,0,1-0.4476986,1-1
		c0-0.5521984-0.4473-1-1-1h-1.9568024c-2.3532982-5.0436993-2.3522987-9.9664993,0.0003014-15.0463991h1.956501
		c0.5527,0,1-0.4477,1-1c0-0.5521998-0.4473-1-1-1H5.2444973c-0.3632998,0-0.6981997,0.1973-0.875,0.5152001
		C0.7366974,9.70895,0.7522975,15.7949495,4.414412,21.2431507c0.1855855,0.2763996,0.4970856,0.4418983,0.8300853,0.4418983
		h10.1299143v0.7432003h-4.9336147c-0.3632994,0-0.6981993,0.1972008-0.875,0.5151005
		C5.9319973,29.4980507,5.9475975,35.58395,9.6106968,41.0322495c0.1856003,0.2763023,0.4971008,0.4419022,0.8301001,0.4419022
		h52.5586166c0.5526848,0,1-0.4478035,1-1C63.9994125,39.9218483,63.5520973,39.4741516,62.9994125,39.4741516z
		 M17.3744125,11.6435499h6.5233841v17.3358994l-2.8486004-1.2915001c-0.2636986-0.1191006-0.5625-0.1191006-0.8261986,0
		l-2.8485851,1.2915001V11.6435499z M5.7874975,19.6850491c-2.875-4.5765991-2.8574002-9.5087986,0.0537-15.0463991h47.8217964
		c-2.0849991,5.0116997-2.0861969,10.0642004-0.0029984,15.0463991H25.8977966v-8.0414991h16.0458984c0.552803,0,1-0.4476995,1-1
		c0-0.5522003-0.447197-1-1-1H12.1126976c-0.5528002,0-1,0.4477997-1,1c0,0.5523005,0.4471998,1,1,1h3.261714v8.0414991H5.7874975z
		 M11.0374975,24.4282494h4.3369141v6.1025009c0,0.3398991,0.1727858,0.6562996,0.4580002,0.8402996
		c0.2860861,0.1846008,0.6464853,0.2115002,0.9550848,0.0704002l3.8486004-1.7446995l3.8486004,1.7446995
		c0.1318989,0.0599995,0.2724991,0.0893002,0.4130993,0.0893002c0.1895008,0,0.3780003-0.0536995,0.5419998-0.1597004
		c0.2852001-0.184,0.4580002-0.5004005,0.4580002-0.8402996v-6.1025009h32.9612007
		c-2.085701,5.0107002-2.0862007,10.0629997-0.0023994,15.0459023H10.9827976
		C8.1077976,34.8974495,8.125412,29.9658508,11.0374975,24.4282494z"/>
	<path d="M54.1919975,44.3154488h1.9567986c0.5527,0,1-0.4477997,1-1c0-0.5522995-0.4473-1-1-1H3.5901973
		c-0.3632998,0-0.6982,0.1972008-0.875,0.5151024c-3.6346998,6.5546989-3.6190999,12.6405983,0.0449002,18.0888977
		c0.1866,0.2764015,0.4970999,0.4419022,0.8300998,0.4419022h52.5585976c0.5527,0,1-0.4477997,1-1c0-0.5522995-0.4473-1-1-1
		h-1.9567986C51.8389969,54.3168488,51.8387947,49.3940506,54.1919975,44.3154488z M4.1321974,59.361351
		c-2.8759999-4.5767021-2.8583999-9.5088005,0.0546999-15.0459023h47.8215141
		c-2.0857162,5.0107002-2.0859146,10.0627022-0.0024147,15.0459023H4.1321974z"/>
</g>
<g>
</g>
<g>
</g>
<g>
</g>
<g>
</g>
<g>
</g>
<g>
</g>
<g>
</g>
<g>
</g>
<g>
</g>
<g>
</g>
<g>
</g>
<g>
</g>
<g>
</g>
<g>
</g>
<g>
</g>
</svg>
