<?xml version="1.0" encoding="iso-8859-1"?>
<!-- Generator: Adobe Illustrator 16.0.0, SVG Export Plug-In . SVG Version: 6.00 Build 0)  -->
<!DOCTYPE svg PUBLIC "-//W3C//DTD SVG 1.1//EN" "http://www.w3.org/Graphics/SVG/1.1/DTD/svg11.dtd">
<svg version="1.1" id="Capa_1" xmlns="http://www.w3.org/2000/svg" xmlns:xlink="http://www.w3.org/1999/xlink" x="0px" y="0px"
	 width="176.727px" height="176.727px" viewBox="0 0 176.727 176.727" style="enable-background:new 0 0 176.727 176.727;"
	 xml:space="preserve">
<g>
	<g>
		<path d="M32.551,51.301c3.827-2.577,8.062-3.889,12.584-3.889c9.812,0,18.128,6.082,26.161,11.975
			c5.887,4.292,12.551,9.179,17.062,9.179c4.371,0,10.938-4.912,16.742-9.256c8.009-5.988,16.296-12.194,26.144-12.194
			c4.409,0,8.547,1.265,12.294,3.76c11.591,7.707,20.96,19.435,28.129,32.651c3.854-10.06,5.87-20.688,4.711-31.776
			c-5.166-50.094-61.069-49.319-88.014-25.145C61.416,2.431,5.527,1.657,0.334,51.75c-1.149,11.065,0.86,21.681,4.696,31.706
			C12.076,70.47,21.234,58.95,32.551,51.301z"/>
		<path d="M61.635,149.036c14.913,10.84,26.729,17.129,26.729,17.129s11.812-6.289,26.72-17.123
			c-8.547-3.925-17.591-6.738-26.72-6.738C79.237,142.304,70.188,145.117,61.635,149.036z"/>
		<path d="M137.207,60.404c-13.991-9.297-30.789,19.618-48.844,19.618c-18.303,0-35.305-28.773-49.402-19.239
			C15.448,76.658,0,114.989,0,145.495c0,48.793,39.561-14.635,88.363-14.635c48.802,0,88.363,63.428,88.363,14.635
			C176.727,114.753,161.021,76.227,137.207,60.404z M62.864,117.337h-13.71v13.713H36.975v-13.713H23.262V105.16h13.713V91.453
			H49.16v13.713h13.71v12.171H62.864z M120.213,117.337c-3.357,0-6.088-2.72-6.088-6.083c0-3.369,2.73-6.094,6.088-6.094
			c3.363,0,6.095,2.725,6.095,6.094C126.308,114.617,123.57,117.337,120.213,117.337z M133.796,130.919
			c-3.369,0-6.088-2.73-6.088-6.094c0-3.357,2.719-6.076,6.088-6.076c3.363,0,6.083,2.719,6.083,6.076
			C139.879,128.188,137.159,130.919,133.796,130.919z M133.796,103.747c-3.369,0-6.088-2.719-6.088-6.076s2.719-6.088,6.088-6.088
			c3.363,0,6.083,2.73,6.083,6.088S137.159,103.747,133.796,103.747z M147.379,117.337c-3.369,0-6.088-2.72-6.088-6.083
			c0-3.369,2.719-6.094,6.088-6.094s6.088,2.725,6.088,6.094C153.467,114.617,150.748,117.337,147.379,117.337z"/>
	</g>
</g>
<g>
</g>
<g>
</g>
<g>
</g>
<g>
</g>
<g>
</g>
<g>
</g>
<g>
</g>
<g>
</g>
<g>
</g>
<g>
</g>
<g>
</g>
<g>
</g>
<g>
</g>
<g>
</g>
<g>
</g>
</svg>
