<?xml version="1.0" encoding="utf-8"?>
<!-- Uploaded to SVGRepo https://www.svgrepo.com -->
<svg version="1.1" id="Layer_1" xmlns="http://www.w3.org/2000/svg" xmlns:xlink="http://www.w3.org/1999/xlink" x="0px" y="0px"
	 width="256px" height="252px" viewBox="0 0 256 252" enable-background="new 0 0 256 252" xml:space="preserve">
<path d="M129.738,85.758H94.581V70.133H55.519v15.625H20.363v23.438h7.813v89.938h93.75v-89.938h7.813V85.758z
	 M63.331,77.945h23.438v7.813H63.331V77.945z M47.706,183.508v-74.313h7.813v74.313H47.706z M71.144,183.508v-74.313h7.813v74.313
	H71.144z M102.394,183.508h-7.813v-74.313h7.813V183.508z M198.608,91.221c-1.756-1.828-1.698-4.734,0.13-6.491
	s4.734-1.698,6.491,0.13s1.698,4.734-0.13,6.491S200.364,93.049,198.608,91.221z M229.263,82.637
	c1.828-1.756,1.887-4.662,0.13-6.491s-4.662-1.887-6.491-0.13c-1.828,1.756-1.887,4.662-0.13,6.491S227.434,84.394,229.263,82.637z
	 M171.883,56.775c1.828-1.756,1.887-4.662,0.13-6.491c-1.756-1.828-4.662-1.887-6.491-0.13s-1.887,4.662-0.13,6.491
	S170.055,58.532,171.883,56.775z M239.094,60.108c1.828-1.756,1.887-4.662,0.13-6.491s-4.662-1.887-6.491-0.13
	s-1.887,4.662-0.13,6.491C234.36,61.806,237.266,61.864,239.094,60.108z M204.274,24.598c1.828-1.756,1.887-4.662,0.13-6.491
	c-1.756-1.828-4.662-1.887-6.491-0.13s-1.887,4.662-0.13,6.491C199.54,26.296,202.445,26.354,204.274,24.598z M229.857,35.032
	c1.828-1.756,1.887-4.662,0.13-6.491c-1.756-1.828-4.662-1.887-6.491-0.13s-1.887,4.662-0.13,6.491
	C225.123,36.73,228.029,36.788,229.857,35.032z M182.436,34.261c1.828-1.756,1.887-4.662,0.13-6.491
	c-1.756-1.828-4.662-1.887-6.491-0.13s-1.887,4.662-0.13,6.491S180.607,36.017,182.436,34.261z M190.179,61.832l-16.368,15.724
	l-1.58,6.822l6.88-1.305l16.368-15.724c4.637,2.618,10.782,2.02,15.012-2.044c5.15-4.947,5.309-12.88,0.362-18.03
	s-12.88-5.309-18.03-0.362C188.593,50.978,187.573,56.91,190.179,61.832z M253.968,54.72c0,21.672-13.201,40.348-31.968,48.417V119
	h-15.232v88.777c0,17.087-13.772,30.858-30.859,30.858h-26.12v11.181H2V215h148v13.484l26.675-0.05
	c11.476,0,20.657-9.181,20.657-20.657V119H182v-15.814c-18.828-8.041-32.083-26.75-32.083-48.466
	c0-29.073,23.463-52.536,52.536-52.536C231.271,2.184,254.989,25.646,253.968,54.72z M241.747,34.102
	c-11.375-21.68-38.232-30.052-59.912-18.677c-21.68,11.375-30.052,38.232-18.677,59.912c11.375,21.68,38.232,30.052,59.912,18.677
	C244.75,82.639,253.122,55.782,241.747,34.102z"/>
</svg>
